<?xml version="1.0" encoding="utf-8"?>
<!-- Generator: Adobe Illustrator 16.0.0, SVG Export Plug-In . SVG Version: 6.00 Build 0)  -->
<!DOCTYPE svg PUBLIC "-//W3C//DTD SVG 1.1//EN" "http://www.w3.org/Graphics/SVG/1.1/DTD/svg11.dtd">
<svg version="1.1" id="Layer_1" xmlns="http://www.w3.org/2000/svg" xmlns:xlink="http://www.w3.org/1999/xlink" x="0px" y="0px"
	 width="392.461px" height="69.25px" viewBox="0 0 392.461 69.25" enable-background="new 0 0 392.461 69.25" xml:space="preserve">
<g>
	<g>
		<path fill="#FFFFFF" d="M245.373,45.732l-1.145-3.01h-9.749l-1.145,3.076c-0.447,1.198-0.829,2.008-1.146,2.428
			c-0.315,0.42-0.834,0.63-1.554,0.63c-0.609,0-1.15-0.224-1.618-0.671c-0.47-0.445-0.704-0.953-0.704-1.521
			c0-0.326,0.055-0.665,0.163-1.014c0.11-0.35,0.29-0.834,0.541-1.454l6.133-15.572c0.175-0.448,0.385-0.984,0.63-1.611
			s0.507-1.147,0.785-1.562c0.278-0.414,0.643-0.75,1.096-1.006c0.452-0.256,1.011-0.384,1.677-0.384
			c0.676,0,1.239,0.128,1.692,0.384s0.817,0.586,1.097,0.99c0.278,0.403,0.512,0.835,0.702,1.3c0.19,0.462,0.435,1.082,0.729,1.855
			l6.264,15.474c0.491,1.177,0.736,2.033,0.736,2.568c0,0.556-0.23,1.066-0.695,1.528c-0.462,0.463-1.021,0.695-1.675,0.695
			c-0.383,0-0.71-0.067-0.983-0.205c-0.271-0.136-0.501-0.321-0.686-0.555c-0.187-0.234-0.385-0.595-0.598-1.079
			C245.708,46.53,245.525,46.104,245.373,45.732z M235.756,39.075h7.164l-3.614-9.896L235.756,39.075z"/>
		<path fill="#FFFFFF" d="M257.869,33.171v0.54c0.785-1.036,1.645-1.796,2.576-2.282c0.933-0.485,2.004-0.728,3.214-0.728
			c1.177,0,2.23,0.256,3.157,0.769s1.619,1.238,2.076,2.176c0.296,0.545,0.486,1.134,0.573,1.767
			c0.087,0.632,0.131,1.439,0.131,2.421v8.308c0,0.896-0.204,1.571-0.613,2.028c-0.409,0.459-0.941,0.688-1.595,0.688
			c-0.665,0-1.206-0.234-1.62-0.702c-0.414-0.471-0.62-1.141-0.62-2.014V38.7c0-1.473-0.205-2.599-0.614-3.379
			c-0.409-0.779-1.225-1.169-2.444-1.169c-0.797,0-1.521,0.238-2.176,0.712c-0.654,0.474-1.135,1.126-1.439,1.954
			c-0.219,0.665-0.327,1.908-0.327,3.729v5.593c0,0.906-0.21,1.584-0.63,2.037c-0.42,0.452-0.963,0.679-1.628,0.679
			c-0.643,0-1.172-0.234-1.586-0.702c-0.415-0.471-0.622-1.141-0.622-2.014V33.236c0-0.851,0.186-1.485,0.557-1.906
			c0.371-0.42,0.878-0.629,1.521-0.629c0.392,0,0.746,0.093,1.062,0.278s0.57,0.463,0.761,0.834
			C257.773,32.185,257.869,32.637,257.869,33.171z"/>
		<path fill="#FFFFFF" d="M278.167,49.413l0.409-0.997l-5.496-13.839c-0.338-0.795-0.507-1.374-0.507-1.733
			c0-0.382,0.099-0.736,0.294-1.063c0.197-0.328,0.467-0.588,0.811-0.785c0.343-0.197,0.7-0.295,1.071-0.295
			c0.643,0,1.128,0.204,1.455,0.614c0.328,0.409,0.616,0.995,0.866,1.758l3.779,10.992l3.582-10.223
			c0.284-0.829,0.54-1.478,0.769-1.947c0.229-0.468,0.472-0.785,0.729-0.949c0.256-0.164,0.618-0.245,1.087-0.245
			c0.338,0,0.662,0.091,0.974,0.27c0.312,0.18,0.551,0.422,0.72,0.728s0.254,0.627,0.254,0.965
			c-0.044,0.207-0.114,0.501-0.213,0.883c-0.099,0.381-0.219,0.769-0.36,1.162l-5.823,15.243c-0.501,1.341-0.991,2.394-1.471,3.157
			c-0.481,0.764-1.116,1.349-1.906,1.759c-0.791,0.409-1.856,0.613-3.198,0.613c-1.308,0-2.29-0.144-2.943-0.426
			c-0.654-0.284-0.981-0.802-0.981-1.555c0-0.513,0.154-0.908,0.466-1.185c0.312-0.278,0.771-0.418,1.383-0.418
			c0.239,0,0.474,0.033,0.703,0.099c0.283,0.064,0.528,0.099,0.736,0.099c0.512,0,0.916-0.076,1.209-0.229
			c0.296-0.154,0.56-0.418,0.794-0.793C277.592,50.696,277.862,50.144,278.167,49.413z"/>
		<path fill="#FFFFFF" d="M294.981,33.481l2.912,9.978l2.648-9.273c0.284-0.971,0.494-1.633,0.631-1.988
			c0.137-0.354,0.393-0.693,0.768-1.014c0.377-0.321,0.892-0.482,1.547-0.482c0.664,0,1.186,0.161,1.562,0.482
			s0.64,0.671,0.793,1.048c0.153,0.375,0.365,1.027,0.639,1.954l2.649,9.273l2.944-9.978c0.196-0.719,0.354-1.24,0.474-1.562
			c0.121-0.321,0.321-0.604,0.605-0.85c0.283-0.246,0.693-0.368,1.227-0.368c0.534,0,0.998,0.186,1.391,0.557
			c0.392,0.37,0.589,0.806,0.589,1.307c0,0.459-0.169,1.152-0.507,2.078l-3.648,10.697c-0.315,0.904-0.561,1.561-0.735,1.964
			c-0.175,0.402-0.449,0.763-0.826,1.079c-0.375,0.315-0.892,0.474-1.546,0.474c-0.676,0-1.207-0.169-1.594-0.508
			c-0.388-0.338-0.674-0.752-0.859-1.242s-0.388-1.129-0.605-1.913l-2.551-8.702l-2.47,8.702c-0.328,1.209-0.682,2.123-1.064,2.739
			c-0.381,0.615-1.051,0.924-2.012,0.924c-0.49,0-0.907-0.095-1.251-0.286c-0.343-0.189-0.629-0.463-0.858-0.817
			c-0.229-0.354-0.431-0.774-0.605-1.26c-0.175-0.484-0.311-0.869-0.409-1.153l-3.614-10.697c-0.36-1.003-0.539-1.695-0.539-2.078
			c0-0.479,0.19-0.91,0.572-1.292c0.381-0.382,0.851-0.573,1.406-0.573c0.741,0,1.243,0.209,1.505,0.629
			C294.409,31.751,294.688,32.467,294.981,33.481z"/>
		<path fill="#FFFFFF" d="M323.802,26.776v6.623c0.566-0.653,1.12-1.172,1.659-1.553c0.54-0.382,1.137-0.668,1.792-0.86
			c0.653-0.189,1.357-0.286,2.109-0.286c1.133,0,2.14,0.24,3.018,0.72c0.878,0.479,1.567,1.178,2.069,2.093
			c0.316,0.535,0.528,1.131,0.638,1.79c0.108,0.661,0.163,1.421,0.163,2.283v8.553c0,0.896-0.204,1.571-0.612,2.028
			c-0.409,0.459-0.952,0.688-1.628,0.688c-1.473,0-2.208-0.905-2.208-2.716v-7.539c0-1.428-0.213-2.527-0.639-3.297
			c-0.426-0.769-1.231-1.153-2.42-1.153c-0.797,0-1.513,0.227-2.151,0.68c-0.638,0.453-1.114,1.072-1.431,1.855
			c-0.24,0.667-0.359,1.851-0.359,3.55v5.904c0,0.884-0.2,1.559-0.599,2.021c-0.397,0.463-0.95,0.695-1.659,0.695
			c-1.472,0-2.208-0.905-2.208-2.716V26.776c0-0.905,0.193-1.584,0.58-2.037c0.388-0.452,0.931-0.679,1.628-0.679
			c0.709,0,1.262,0.228,1.659,0.687C323.602,25.206,323.802,25.882,323.802,26.776z"/>
		<path fill="#FFFFFF" d="M352.13,40.875h-8.734c0.011,1.014,0.215,1.907,0.614,2.682c0.397,0.775,0.927,1.358,1.586,1.75
			c0.659,0.394,1.388,0.589,2.184,0.589c0.534,0,1.022-0.062,1.465-0.188c0.44-0.125,0.869-0.321,1.283-0.589
			s0.796-0.554,1.145-0.858c0.349-0.307,0.802-0.721,1.357-1.244c0.229-0.195,0.557-0.294,0.982-0.294
			c0.457,0,0.828,0.127,1.111,0.376c0.283,0.252,0.426,0.605,0.426,1.063c0,0.403-0.159,0.875-0.475,1.416
			c-0.316,0.538-0.793,1.057-1.432,1.553c-0.638,0.496-1.438,0.908-2.404,1.234c-0.965,0.327-2.074,0.491-3.328,0.491
			c-2.868,0-5.099-0.817-6.69-2.454c-1.592-1.635-2.388-3.854-2.388-6.656c0-1.319,0.196-2.543,0.589-3.672
			c0.393-1.128,0.965-2.096,1.718-2.903c0.752-0.807,1.679-1.426,2.78-1.856c1.101-0.43,2.323-0.646,3.664-0.646
			c1.744,0,3.241,0.368,4.489,1.103c1.248,0.736,2.185,1.688,2.806,2.855c0.621,1.166,0.933,2.355,0.933,3.566
			c0,1.121-0.322,1.85-0.965,2.182C354.201,40.708,353.297,40.875,352.13,40.875z M343.396,38.34h8.097
			c-0.109-1.527-0.521-2.669-1.234-3.426c-0.715-0.758-1.655-1.137-2.822-1.137c-1.111,0-2.025,0.384-2.739,1.153
			C343.981,35.698,343.549,36.835,343.396,38.34z"/>
		<path fill="#FFFFFF" d="M364.005,42.413v3.728c0,0.906-0.213,1.584-0.638,2.037c-0.426,0.452-0.965,0.679-1.62,0.679
			c-0.643,0-1.172-0.229-1.586-0.688c-0.414-0.457-0.622-1.133-0.622-2.028v-12.43c0-2.006,0.727-3.01,2.176-3.01
			c0.742,0,1.276,0.235,1.603,0.704c0.328,0.469,0.508,1.161,0.54,2.077c0.535-0.916,1.083-1.607,1.644-2.077
			c0.562-0.469,1.312-0.704,2.25-0.704c0.937,0,1.849,0.235,2.73,0.704c0.884,0.469,1.324,1.09,1.324,1.865
			c0,0.545-0.188,0.996-0.562,1.349c-0.377,0.354-0.784,0.532-1.219,0.532c-0.163,0-0.559-0.102-1.187-0.302
			c-0.628-0.203-1.18-0.303-1.66-0.303c-0.654,0-1.188,0.171-1.603,0.515c-0.415,0.343-0.736,0.854-0.966,1.53
			c-0.229,0.677-0.387,1.48-0.474,2.413C364.049,39.934,364.005,41.072,364.005,42.413z"/>
		<path fill="#FFFFFF" d="M385.873,40.875h-8.734c0.012,1.014,0.216,1.907,0.613,2.682c0.398,0.775,0.927,1.358,1.587,1.75
			c0.66,0.394,1.388,0.589,2.184,0.589c0.534,0,1.022-0.062,1.464-0.188c0.441-0.125,0.87-0.321,1.284-0.589
			s0.796-0.554,1.146-0.858c0.349-0.307,0.801-0.721,1.357-1.244c0.229-0.195,0.556-0.294,0.98-0.294
			c0.459,0,0.829,0.127,1.112,0.376c0.283,0.252,0.426,0.605,0.426,1.063c0,0.403-0.158,0.875-0.475,1.416
			c-0.315,0.538-0.793,1.057-1.432,1.553c-0.638,0.496-1.439,0.908-2.404,1.234c-0.965,0.327-2.074,0.491-3.328,0.491
			c-2.867,0-5.098-0.817-6.689-2.454c-1.593-1.635-2.388-3.854-2.388-6.656c0-1.319,0.195-2.543,0.588-3.672
			c0.394-1.128,0.965-2.096,1.718-2.903c0.753-0.807,1.679-1.426,2.781-1.856c1.101-0.43,2.322-0.646,3.663-0.646
			c1.744,0,3.241,0.368,4.489,1.103c1.249,0.736,2.185,1.688,2.806,2.855c0.621,1.166,0.933,2.355,0.933,3.566
			c0,1.121-0.322,1.85-0.965,2.182C387.945,40.708,387.04,40.875,385.873,40.875z M377.139,38.34h8.097
			c-0.108-1.527-0.521-2.669-1.235-3.426c-0.714-0.758-1.653-1.137-2.821-1.137c-1.111,0-2.025,0.384-2.739,1.153
			C377.726,35.698,377.291,36.835,377.139,38.34z"/>
	</g>
	<g>
		<path fill="#FFFFFF" d="M82.398,48.256v-14.91h-2.431v-2.395h2.431v-0.822c0-2.431,0.537-4.649,2.002-6.043
			c1.18-1.144,2.753-1.609,4.22-1.609c1.108,0,2.073,0.251,2.681,0.501l-0.429,2.431c-0.465-0.215-1.107-0.394-2.002-0.394
			c-2.681,0-3.361,2.36-3.361,5.005v0.93h4.183v2.395h-4.183v14.91H82.398z"/>
		<path fill="#FFFFFF" d="M92.518,36.351c0-2.039-0.036-3.791-0.143-5.4h2.753l0.107,3.397h0.143c0.787-2.324,2.681-3.79,4.791-3.79
			c0.357,0,0.607,0.035,0.893,0.106v2.967c-0.321-0.071-0.643-0.107-1.071-0.107c-2.218,0-3.791,1.681-4.22,4.041
			c-0.07,0.429-0.143,0.931-0.143,1.465v9.226h-3.11V36.351z"/>
		<path fill="#FFFFFF" d="M119.514,39.46c0,6.4-4.434,9.19-8.616,9.19c-4.685,0-8.295-3.433-8.295-8.904
			c0-5.792,3.79-9.188,8.581-9.188C116.154,30.558,119.514,34.168,119.514,39.46z M105.784,39.64c0,3.789,2.181,6.649,5.256,6.649
			c3.003,0,5.256-2.825,5.256-6.722c0-2.931-1.467-6.65-5.185-6.65S105.784,36.351,105.784,39.64z"/>
		<path fill="#FFFFFF" d="M123.484,35.636c0-1.79-0.035-3.255-0.143-4.685h2.79l0.178,2.86h0.072c0.858-1.645,2.86-3.253,5.72-3.253
			c2.396,0,6.114,1.43,6.114,7.366v10.332h-3.146V38.28c0-2.788-1.037-5.113-4.004-5.113c-2.073,0-3.682,1.466-4.218,3.218
			c-0.143,0.394-0.215,0.929-0.215,1.466v10.404h-3.146V35.636z"/>
		<path fill="#FFFFFF" d="M146.978,25.981v4.969h4.504v2.395h-4.504v9.333c0,2.146,0.607,3.359,2.359,3.359
			c0.823,0,1.43-0.105,1.824-0.213l0.143,2.358c-0.607,0.251-1.573,0.429-2.789,0.429c-1.466,0-2.646-0.464-3.396-1.322
			c-0.895-0.929-1.217-2.466-1.217-4.504v-9.44h-2.681v-2.395h2.681v-4.147L146.978,25.981z"/>
		<path fill="#FFFFFF" d="M169.755,22.87v20.917c0,1.536,0.035,3.289,0.143,4.469h-2.825l-0.143-3.003h-0.071
			c-0.965,1.93-3.075,3.397-5.9,3.397c-4.183,0-7.4-3.541-7.4-8.797c-0.037-5.756,3.539-9.295,7.759-9.295
			c2.645,0,4.434,1.25,5.219,2.645h0.072V22.87H169.755z M166.608,37.994c0-0.394-0.036-0.929-0.143-1.322
			c-0.465-2.003-2.181-3.647-4.541-3.647c-3.254,0-5.184,2.86-5.184,6.687c0,3.504,1.716,6.4,5.113,6.4
			c2.109,0,4.041-1.396,4.612-3.754c0.107-0.43,0.143-0.858,0.143-1.359V37.994z"/>
		<path fill="#FFFFFF" d="M176.729,40.175c0.071,4.255,2.789,6.007,5.935,6.007c2.252,0,3.611-0.393,4.791-0.894l0.537,2.253
			c-1.109,0.5-3.003,1.071-5.757,1.071c-5.328,0-8.509-3.503-8.509-8.724c0-5.22,3.075-9.331,8.117-9.331
			c5.648,0,7.15,4.969,7.15,8.151c0,0.645-0.072,1.145-0.107,1.466H176.729z M185.954,37.924c0.037-2.002-0.822-5.114-4.362-5.114
			c-3.182,0-4.577,2.931-4.827,5.114H185.954z"/>
		<path fill="#FFFFFF" d="M192.463,45.037c0.93,0.609,2.574,1.252,4.147,1.252c2.288,0,3.36-1.145,3.36-2.574
			c0-1.501-0.894-2.323-3.218-3.182c-3.111-1.108-4.576-2.825-4.576-4.897c0-2.79,2.253-5.078,5.972-5.078
			c1.751,0,3.289,0.5,4.255,1.071l-0.787,2.29c-0.68-0.43-1.931-1.002-3.54-1.002c-1.859,0-2.896,1.072-2.896,2.36
			c0,1.43,1.037,2.074,3.29,2.933c3.003,1.144,4.541,2.645,4.541,5.219c0,3.039-2.36,5.184-6.472,5.184
			c-1.896,0-3.647-0.464-4.863-1.179L192.463,45.037z"/>
		<path fill="#FFFFFF" d="M210.163,38.888h0.071c0.429-0.607,1.038-1.357,1.537-1.965l5.078-5.972h3.789l-6.687,7.116l7.617,10.189
			h-3.826l-5.972-8.295l-1.608,1.787v6.508h-3.11V22.87h3.11V38.888z"/>
	</g>
	<g>
		<path fill="#FFFFFF" d="M56.995,37.112c0,0,0.252-17.73-20.988-17.704c-20.894,0.028-20.856,17.804-20.856,17.804
			S35.014,48.323,56.995,37.112z"/>
		<path fill="#FFFFFF" d="M15.136,37.154c0,0,18.737,14.369,41.875,0c0,0,12.522,11.674-0.068,16.96c0,0-20.88,9.391-42.223-0.097
			C14.72,54.018,2.905,51.225,15.136,37.154z"/>
		<path fill="#FFFFFF" d="M31.186,20.701c0,0-0.028-4.499,4.756-4.491c5.438,0.007,5.015,4.461,5.015,4.461L31.186,20.701z"/>
		<rect x="34.296" y="12.124" fill="#FFFFFF" width="3.557" height="7.194"/>
		<rect x="30.913" y="10.993" fill="#FFFFFF" width="10.323" height="2.89"/>
	</g>
	<path fill="none" d="M3.123,40.273v12.982c0,6.989,5.687,12.675,12.677,12.675h40.549c6.99,0,12.677-5.686,12.677-12.675V31.919
		C40.885,26.777,17.16,33.999,3.123,40.273z"/>
	<path fill="#FFFFFF" d="M69.025,31.919v-0.441c-8.082-2.344-31.285-6.807-65.903,4.98v3.815
		C17.16,33.999,40.885,26.777,69.025,31.919z"/>
	<g>
		<path fill="none" d="M68.55,15.994c0-6.727-5.474-12.2-12.201-12.2H15.799c-6.728,0-12.201,5.473-12.201,12.2v37.262
			c0,6.728,5.474,12.199,12.201,12.199h40.549c6.728,0,12.201-5.472,12.201-12.199V15.994z"/>
		<path fill="#FFFFFF" d="M56.349,1.893H15.799c-7.777,0-14.103,6.326-14.103,14.102v37.262c0,7.775,6.326,14.102,14.103,14.102
			h40.549c7.777,0,14.103-6.326,14.103-14.102V15.994C70.452,8.219,64.125,1.893,56.349,1.893z M56.349,65.455H15.799
			c-6.728,0-12.201-5.472-12.201-12.199V15.994c0-6.727,5.474-12.2,12.201-12.2h40.549c6.728,0,12.201,5.473,12.201,12.2v37.262
			C68.55,59.983,63.076,65.455,56.349,65.455z"/>
	</g>
</g>
</svg>
